<svg width="263" height="6" viewBox="0 0 263 6" fill="none" xmlns="http://www.w3.org/2000/svg">
<path d="M262.667 3C262.667 1.52724 261.473 0.333333 260 0.333333C258.527 0.333333 257.333 1.52724 257.333 3C257.333 4.47276 258.527 5.66667 260 5.66667C261.473 5.66667 262.667 4.47276 262.667 3ZM5.66667 3C5.66667 1.52724 4.47276 0.333333 3 0.333333C1.52725 0.333333 0.333344 1.52724 0.333344 3C0.333344 4.47276 1.52725 5.66667 3 5.66667C4.47276 5.66667 5.66667 4.47276 5.66667 3ZM260 2.5L3 2.5V3.5L260 3.5V2.5Z" fill="#7F3E98"/>
</svg>
